<svg id="menu" xmlns="http://www.w3.org/2000/svg" width="34" height="34" viewBox="0 0 38.857 38.857">
  <metadata><?xpacket begin="﻿" id="W5M0MpCehiHzreSzNTczkc9d"?>
<x:xmpmeta xmlns:x="adobe:ns:meta/" x:xmptk="Adobe XMP Core 5.6-c138 79.159824, 2016/09/14-01:09:01        ">
   <rdf:RDF xmlns:rdf="http://www.w3.org/1999/02/22-rdf-syntax-ns#">
      <rdf:Description rdf:about=""/>
   </rdf:RDF>
</x:xmpmeta>
                                                                                                    
                                                                                                    
                                                                                                    
                                                                                                    
                                                                                                    
                                                                                                    
                                                                                                    
                                                                                                    
                                                                                                    
                                                                                                    
                                                                                                    
                                                                                                    
                                                                                                    
                                                                                                    
                                                                                                    
                                                                                                    
                                                                                                    
                                                                                                    
                                                                                                    
                                                                                                    
                           
<?xpacket end="w"?></metadata>
<defs>
    <style>
      .cls-1 {
        fill: #bbb;
        fill-rule: evenodd;
      }
    </style>
  </defs>
  <path id="Rounded_Rectangle_1_copy_2" data-name="Rounded Rectangle 1 copy 2" class="cls-1" d="M77.1,92.675h35.8a1.81,1.81,0,0,1,1.884,1.727v1.152a1.81,1.81,0,0,1-1.884,1.727H77.1a1.811,1.811,0,0,1-1.884-1.727V94.4A1.811,1.811,0,0,1,77.1,92.675Z" transform="translate(-75.571 -64.837)"/>
  <path id="Rounded_Rectangle_1_copy_3" data-name="Rounded Rectangle 1 copy 3" class="cls-1" d="M77.1,81.956h35.8a1.811,1.811,0,0,1,1.884,1.727v1.152a1.811,1.811,0,0,1-1.884,1.727H77.1a1.811,1.811,0,0,1-1.884-1.727V83.683A1.811,1.811,0,0,1,77.1,81.956Z" transform="translate(-75.571 -64.837)"/>
  <path id="Rounded_Rectangle_1_copy_4" data-name="Rounded Rectangle 1 copy 4" class="cls-1" d="M77.1,71.237h35.8a1.811,1.811,0,0,1,1.884,1.728v1.152a1.81,1.81,0,0,1-1.884,1.727H77.1a1.811,1.811,0,0,1-1.884-1.727V72.965A1.811,1.811,0,0,1,77.1,71.237Z" transform="translate(-75.571 -64.837)"/>
</svg>
